<svg width="20" height="16" viewBox="0 0 20 16" fill="none" xmlns="http://www.w3.org/2000/svg">
<path d="M7.98871 13.0908C6.95487 13.0908 6.10901 13.7454 6.10901 14.5454C6.10901 15.3454 6.95487 15.9999 7.98871 15.9999C9.02254 15.9999 9.86841 15.3454 9.86841 14.5454C9.86841 13.7454 9.02254 13.0908 7.98871 13.0908ZM7.98871 15.2726C7.47179 15.2726 7.04886 14.9454 7.04886 14.5454C7.04886 14.1454 7.47179 13.8181 7.98871 13.8181C8.50563 13.8181 8.92856 14.1454 8.92856 14.5454C8.92856 14.9454 8.50563 15.2726 7.98871 15.2726Z" fill="white"/>
<path d="M16.4473 13.0908C15.4135 13.0908 14.5676 13.7454 14.5676 14.5454C14.5676 15.3454 15.4135 15.9999 16.4473 15.9999C17.4812 15.9999 18.327 15.3454 18.327 14.5454C18.327 13.7454 17.4812 13.0908 16.4473 13.0908ZM16.4473 15.2726C15.9304 15.2726 15.5075 14.9454 15.5075 14.5454C15.5075 14.1454 15.9304 13.8181 16.4473 13.8181C16.9642 13.8181 17.3872 14.1454 17.3872 14.5454C17.3872 14.9454 16.9642 15.2726 16.4473 15.2726Z" fill="white"/>
<path d="M19.5489 2.69091C19.2199 2.36364 18.656 2.18182 18.0921 2.18182H5.07519L4.88722 1.23636C4.74624 0.545455 3.94737 0 3.00752 0H0V0.727273H3.00752C3.47744 0.727273 3.90038 0.981818 3.94737 1.34545L5.92105 11.2C6.10902 11.8909 6.9079 12.4 7.80075 12.4H17.8571V11.6727H7.80075C7.33083 11.6727 6.95489 11.4182 6.8609 11.0545L6.67293 10.1818H17.1053C17.9981 10.1818 18.797 9.67273 18.985 8.90909L19.9718 3.81818C20.0658 3.41818 19.9248 3.01818 19.5489 2.69091ZM19.032 3.74545L18.0451 8.83636C17.9511 9.23636 17.5752 9.49091 17.1053 9.49091H6.53195L5.21617 2.94545H18.0921C18.3741 2.94545 18.656 3.05455 18.844 3.2C19.032 3.30909 19.0789 3.52727 19.032 3.74545Z" fill="white"/>
</svg>
