<svg width="7" height="18" viewBox="0 0 7 18" fill="none" xmlns="http://www.w3.org/2000/svg">
<path d="M1.50478 3.44977C1.50478 3.89838 1.50478 5.90161 1.50478 5.90161H0V8.90031H1.50478V17.8095H4.59691V8.90031H6.67094C6.67094 8.90031 6.86489 7.46206 6.95929 5.89024C6.68895 5.89024 4.60798 5.89024 4.60798 5.89024C4.60798 5.89024 4.60798 4.14556 4.60798 3.84004C4.60798 3.5339 4.94469 3.12153 5.27805 3.12153C5.61039 3.12153 6.31237 3.12153 6.96212 3.12153C6.96212 2.71314 6.96212 1.30253 6.96212 0C6.09475 0 5.10751 0 4.6728 0C1.42864 0.000307055 1.50478 3.00147 1.50478 3.44977Z" fill="#C4C4C4"/>
</svg>
