<svg width="24" height="15" viewBox="0 0 24 15" fill="none" xmlns="http://www.w3.org/2000/svg">
<path d="M23.453 0.976777C23.6179 0.414116 23.453 0 22.66 0H20.0358C19.3675 0 19.06 0.355604 18.8952 0.751744C18.8952 0.751744 17.5586 4.04221 15.6695 6.17589C15.0592 6.79258 14.7785 6.99068 14.4444 6.99068C14.2796 6.99068 14.0256 6.79258 14.0256 6.22992V0.976777C14.0256 0.301573 13.8384 0 13.286 0H9.1603C8.7415 0 8.492 0.31512 8.492 0.607679C8.492 1.24683 9.43656 1.39537 9.5346 3.19595V7.10322C9.5346 7.95849 9.38308 8.11595 9.04896 8.11595C8.15788 8.11595 5.99255 4.81199 4.70944 1.03081C4.45107 0.297092 4.19704 0 3.5243 0H0.900002C0.151513 0 0 0.355604 0 0.751744C0 1.45389 0.89108 4.94256 4.14794 9.55197C6.3177 12.6984 9.37406 14.4045 12.1542 14.4045C13.8249 14.4045 14.0299 14.0264 14.0299 13.3737C14.0299 10.3667 13.8785 10.0831 14.7161 10.0831C15.1037 10.0831 15.7719 10.2811 17.3314 11.7981C19.1134 13.5987 19.4075 14.4045 20.4055 14.4045H23.0297C23.7783 14.4045 24.157 14.0264 23.9386 13.279C23.4397 11.7081 20.0669 8.47609 19.9155 8.26002C19.5279 7.75587 19.6392 7.53073 19.9155 7.08055C19.92 7.07618 23.1233 2.52075 23.453 0.976777Z" fill="#C4C4C4"/>
</svg>
