<svg width="190" height="19" viewBox="0 0 190 19" fill="none" xmlns="http://www.w3.org/2000/svg">
<path d="M29.5432 1.50268C29.2873 1.52815 29.0314 1.58758 28.7755 1.68096C28.5196 1.76586 28.2678 1.87623 28.0202 2.01206C27.6405 2.2328 27.3681 2.47475 27.203 2.73794C27.0462 3.00112 26.9017 3.31948 26.7696 3.69303C26.3156 4.98347 25.614 7.05071 24.6647 9.89477C23.7237 12.7388 22.7414 15.6933 21.7178 18.758H19.2291L14.5859 5.32306L10.4008 18.758H7.91202C6.53351 14.632 5.47692 11.4569 4.74226 9.23257C4.0076 6.99978 3.38851 5.12779 2.88498 3.61662C2.72814 3.15818 2.55067 2.82708 2.35256 2.62332C2.15445 2.41108 1.89856 2.19884 1.58488 1.9866C1.36201 1.83378 1.12262 1.72341 0.866732 1.6555C0.619094 1.57909 0.330184 1.51966 0 1.47721V0.483914H9.37309V1.45174C8.82003 1.51966 8.4073 1.58758 8.1349 1.6555C7.8625 1.71492 7.64788 1.7786 7.49104 1.84651C7.34246 1.91443 7.25166 1.98659 7.21864 2.063C7.18562 2.13941 7.16911 2.20733 7.16911 2.26676C7.16911 2.38561 7.18149 2.50022 7.20626 2.61059C7.23927 2.72096 7.27229 2.8483 7.30531 2.99263C7.50342 3.65483 7.90377 4.9113 8.50636 6.76206C9.10894 8.61282 9.85185 10.9093 10.7351 13.6515L14.7344 0.483914H17.3594L22.0026 14.059C22.6877 11.8771 23.2325 10.0943 23.637 8.71045C24.0497 7.32663 24.3964 6.14231 24.6771 5.15751C24.8422 4.55474 24.9743 4.0496 25.0733 3.64209C25.1724 3.23458 25.2219 2.88226 25.2219 2.58512C25.2219 2.40684 25.1394 2.25402 24.9743 2.12668C24.8174 1.99933 24.6028 1.88896 24.3304 1.79558C24.0993 1.71917 23.798 1.65974 23.4265 1.61729C23.0633 1.56635 22.7455 1.52815 22.4731 1.50268V0.483914H29.5432V1.50268Z" fill="white"/>
<path d="M39.6096 18.5543H29.8651V17.561C30.088 17.544 30.414 17.5185 30.8433 17.4846C31.2808 17.4506 31.5821 17.3997 31.7472 17.3318C32.0526 17.2044 32.2589 17.0389 32.3662 16.8351C32.4818 16.6229 32.5396 16.3555 32.5396 16.0328V3.22185C32.5396 2.9332 32.4859 2.67851 32.3786 2.45777C32.2713 2.23704 32.0608 2.05876 31.7472 1.92292C31.549 1.83802 31.256 1.75313 30.868 1.66823C30.4801 1.57484 30.1458 1.51117 29.8651 1.47721V0.483914H39.6096V1.47721C39.362 1.50268 39.0525 1.54088 38.681 1.59182C38.3096 1.63427 37.9959 1.69794 37.74 1.78284C37.4181 1.89321 37.2034 2.06725 37.0961 2.30496C36.9888 2.53418 36.9352 2.79736 36.9352 3.0945V15.8928C36.9352 16.1984 36.9888 16.4616 37.0961 16.6823C37.2117 16.8945 37.4263 17.0686 37.74 17.2044C37.9133 17.2808 38.1981 17.3572 38.5943 17.4336C38.9988 17.5016 39.3372 17.544 39.6096 17.561V18.5543Z" fill="white"/>
<path d="M61.4389 1.47721C61.2078 1.50268 60.8776 1.54937 60.4484 1.61729C60.0191 1.68521 59.6312 1.85076 59.2845 2.11394C58.979 2.34316 58.7603 2.73794 58.6282 3.29826C58.5044 3.85009 58.4425 4.6651 58.4425 5.7433V18.6562H56.2385L45.2929 4.68633V13.1676C45.2929 14.2203 45.359 15.0226 45.491 15.5744C45.6314 16.1177 45.8542 16.5168 46.1597 16.7714C46.3825 16.9582 46.7375 17.1238 47.2245 17.2681C47.7115 17.4124 48.0995 17.5101 48.3884 17.561V18.5543H40.8355V17.561C41.1574 17.5355 41.5247 17.4761 41.9374 17.3827C42.3584 17.2808 42.7092 17.128 42.9899 16.9243C43.3118 16.6781 43.5306 16.3088 43.6461 15.8164C43.77 15.3155 43.8319 14.4792 43.8319 13.3076V4.75C43.8319 4.32551 43.7658 3.9265 43.6338 3.55295C43.5099 3.17091 43.3118 2.84406 43.0394 2.57239C42.7505 2.28374 42.4162 2.05876 42.0365 1.89745C41.665 1.72766 41.2399 1.59607 40.7612 1.50268V0.483914H47.3731L56.9814 12.7091V5.87064C56.9814 4.78396 56.9113 3.97744 56.7709 3.45107C56.6306 2.91622 56.4077 2.52145 56.1023 2.26676C55.8629 2.07149 55.508 1.90594 55.0375 1.77011C54.567 1.62578 54.1873 1.52815 53.8983 1.47721V0.483914H61.4389V1.47721Z" fill="white"/>
<path d="M78.1297 5.09383H77.1887C76.9493 4.40617 76.5366 3.71001 75.9505 3.00536C75.3644 2.30071 74.7825 1.88472 74.2046 1.75737C73.957 1.69794 73.6103 1.66399 73.1646 1.6555C72.7271 1.63852 72.3639 1.63003 72.075 1.63003H69.5243V8.60858H71.332C71.786 8.60858 72.1988 8.5534 72.5702 8.44303C72.9417 8.33266 73.2801 8.12042 73.5855 7.8063C73.7754 7.61104 73.9652 7.2672 74.1551 6.7748C74.3532 6.28239 74.4812 5.85366 74.5389 5.48861H75.48V13.0275H74.5389C74.4894 12.6709 74.3615 12.2252 74.1551 11.6903C73.957 11.147 73.7671 10.7735 73.5855 10.5697C73.3131 10.2641 72.9912 10.0561 72.6198 9.94571C72.2483 9.82685 71.8191 9.76743 71.332 9.76743H69.5243V14.9759C69.5243 15.5192 69.5614 15.9522 69.6357 16.2748C69.7183 16.5889 69.8669 16.8309 70.0815 17.0007C70.2878 17.162 70.5685 17.2681 70.9234 17.319C71.2866 17.37 71.7778 17.3954 72.3969 17.3954C72.6858 17.3954 73.0325 17.3912 73.437 17.3827C73.8414 17.3742 74.1964 17.3487 74.5018 17.3063C74.8485 17.2638 75.1704 17.2002 75.4676 17.1153C75.773 17.0304 76 16.9073 76.1486 16.746C76.5448 16.33 76.9906 15.6975 77.4858 14.8485C77.9811 13.9911 78.3072 13.3501 78.464 12.9256H79.3679L79.0336 18.5543H62.5533V17.561C62.7844 17.544 63.0981 17.5101 63.4943 17.4591C63.8905 17.4082 64.1712 17.3487 64.3363 17.2808C64.6499 17.145 64.8604 16.9752 64.9678 16.7714C65.0751 16.5592 65.1287 16.2918 65.1287 15.9692V3.22185C65.1287 2.91622 65.0833 2.66577 64.9925 2.47051C64.9017 2.26676 64.683 2.08423 64.3363 1.92292C64.1217 1.82105 63.8204 1.72766 63.4324 1.64276C63.0444 1.55786 62.7514 1.50268 62.5533 1.47721V0.483914H78.1297V5.09383Z" fill="white"/>
<path d="M106.819 18.5543H99.538C99.3399 18.3251 99.084 18.0279 98.7703 17.6629C98.4566 17.2893 98.1883 16.9582 97.9655 16.6696C97.0905 17.5016 96.2155 18.1001 95.3405 18.4651C94.4738 18.8217 93.5493 19 92.567 19C91.0234 19 89.7563 18.5713 88.7657 17.7138C87.7834 16.8563 87.2923 15.7399 87.2923 14.3646C87.2923 13.6769 87.379 13.0869 87.5523 12.5945C87.7339 12.1021 88.0228 11.6097 88.419 11.1173C88.7988 10.6419 89.2693 10.2174 89.8306 9.84383C90.3919 9.4618 91.0234 9.10523 91.725 8.77413C90.9821 7.8063 90.462 6.9828 90.1649 6.30362C89.876 5.62444 89.7315 4.92828 89.7315 4.21515C89.7315 2.99263 90.2268 1.9866 91.2173 1.19705C92.2079 0.399017 93.3924 0 94.7709 0C96.0587 0 97.1029 0.31412 97.9036 0.942359C98.7043 1.5706 99.1046 2.40259 99.1046 3.43834C99.1046 4.33825 98.8652 5.14477 98.3865 5.85791C97.9077 6.56256 97.1111 7.25447 95.9967 7.93365C96.8965 9.12221 97.5899 10.0179 98.0769 10.6206C98.5722 11.2149 99.2284 12.0002 100.046 12.9765C100.566 12.187 100.954 11.4611 101.21 10.7989C101.474 10.1367 101.606 9.58065 101.606 9.1307C101.606 8.87601 101.42 8.67225 101.049 8.51944C100.685 8.35813 100.169 8.20956 99.5008 8.07373V7.1059H106.422V8.07373C105.671 8.14164 105.114 8.23503 104.751 8.35389C104.396 8.47274 104.045 8.7147 103.698 9.07976C103.55 9.23257 103.364 9.50424 103.141 9.89477C102.926 10.2768 102.72 10.6461 102.522 11.0027C102.283 11.4357 102.027 11.8899 101.754 12.3653C101.482 12.8407 101.152 13.3374 100.764 13.8552C101.523 14.7721 102.146 15.4598 102.633 15.9182C103.129 16.3682 103.533 16.6781 103.847 16.8479C104.202 17.0431 104.652 17.2002 105.196 17.319C105.741 17.4294 106.282 17.5016 106.819 17.5355V18.5543ZM97.2226 3.62936C97.2226 2.88226 97.0451 2.29647 96.6901 1.87198C96.3434 1.43901 95.8894 1.22252 95.3281 1.22252C94.7916 1.22252 94.3582 1.4008 94.028 1.75737C93.6978 2.10545 93.5328 2.5639 93.5328 3.13271C93.5328 3.62511 93.6855 4.18543 93.9909 4.81367C94.2963 5.43342 94.7668 6.18901 95.4024 7.08043C96.0298 6.63047 96.4879 6.10836 96.7768 5.51407C97.074 4.9113 97.2226 4.28307 97.2226 3.62936ZM97.3092 15.8418C96.6158 14.9844 95.8069 13.9868 94.8824 12.8492C93.9661 11.7116 93.1118 10.6291 92.3193 9.60188C91.8818 10.0433 91.564 10.5612 91.3659 11.1555C91.1761 11.7413 91.0811 12.3313 91.0811 12.9256C91.0811 14.0547 91.432 14.9759 92.1336 15.689C92.8352 16.4021 93.7267 16.7587 94.8081 16.7587C95.3116 16.7587 95.7491 16.695 96.1206 16.5677C96.492 16.4319 96.8883 16.1899 97.3092 15.8418Z" fill="white"/>
<path d="M129.527 10.2641C130.055 10.6376 130.484 11.1088 130.815 11.6776C131.145 12.2379 131.31 12.9001 131.31 13.6642C131.31 14.5811 131.12 15.3579 130.74 15.9946C130.369 16.6229 129.832 17.1195 129.131 17.4846C128.388 17.8751 127.529 18.151 126.555 18.3123C125.589 18.4736 124.45 18.5543 123.138 18.5543H114.012V17.561C114.268 17.5355 114.59 17.4973 114.978 17.4464C115.366 17.3954 115.639 17.336 115.795 17.2681C116.101 17.1407 116.307 16.9752 116.414 16.7714C116.53 16.5592 116.588 16.2875 116.588 15.9564V3.22185C116.588 2.91622 116.542 2.66153 116.452 2.45777C116.361 2.25402 116.142 2.07574 115.795 1.92292C115.539 1.81256 115.242 1.72341 114.904 1.6555C114.565 1.57909 114.268 1.51966 114.012 1.47721V0.483914H123.559C125.961 0.483914 127.694 0.823503 128.759 1.50268C129.824 2.18186 130.356 3.18365 130.356 4.50804C130.356 5.1193 130.237 5.6584 129.997 6.12533C129.758 6.58378 129.415 6.9828 128.97 7.32239C128.565 7.63651 128.082 7.90818 127.521 8.1374C126.96 8.36662 126.357 8.55764 125.713 8.71045V8.95241C126.357 9.02033 127.026 9.1689 127.719 9.39812C128.413 9.61886 129.015 9.90751 129.527 10.2641ZM125.54 4.82641C125.54 3.82462 125.263 3.04357 124.71 2.48324C124.166 1.92292 123.344 1.64276 122.246 1.64276C122.09 1.64276 121.883 1.65125 121.627 1.66823C121.38 1.67672 121.165 1.68521 120.983 1.6937V8.39209H121.627C122.964 8.39209 123.951 8.07373 124.587 7.437C125.222 6.79178 125.54 5.92158 125.54 4.82641ZM126.407 13.4987C126.407 12.2422 126.043 11.2786 125.317 10.6079C124.591 9.93722 123.546 9.60188 122.184 9.60188C122.028 9.60188 121.817 9.61037 121.553 9.62735C121.297 9.63583 121.107 9.64433 120.983 9.65281V16.2621C121.058 16.5762 121.289 16.8436 121.677 17.0643C122.065 17.2766 122.535 17.3827 123.088 17.3827C124.071 17.3827 124.867 17.0431 125.478 16.3639C126.097 15.6848 126.407 14.7297 126.407 13.4987Z" fill="white"/>
<path d="M148.805 5.09383H147.864C147.625 4.40617 147.212 3.71001 146.626 3.00536C146.04 2.30071 145.458 1.88472 144.88 1.75737C144.633 1.69794 144.286 1.66399 143.84 1.6555C143.403 1.63852 143.04 1.63003 142.751 1.63003H140.2V8.60858H142.008C142.462 8.60858 142.875 8.5534 143.246 8.44303C143.617 8.33266 143.956 8.12042 144.261 7.8063C144.451 7.61104 144.641 7.2672 144.831 6.7748C145.029 6.28239 145.157 5.85366 145.215 5.48861H146.156V13.0275H145.215C145.165 12.6709 145.037 12.2252 144.831 11.6903C144.633 11.147 144.443 10.7735 144.261 10.5697C143.989 10.2641 143.667 10.0561 143.296 9.94571C142.924 9.82685 142.495 9.76743 142.008 9.76743H140.2V14.9759C140.2 15.5192 140.237 15.9522 140.312 16.2748C140.394 16.5889 140.543 16.8309 140.757 17.0007C140.964 17.162 141.244 17.2681 141.599 17.319C141.962 17.37 142.454 17.3954 143.073 17.3954C143.362 17.3954 143.708 17.3912 144.113 17.3827C144.517 17.3742 144.872 17.3487 145.178 17.3063C145.524 17.2638 145.846 17.2002 146.143 17.1153C146.449 17.0304 146.676 16.9073 146.824 16.746C147.221 16.33 147.666 15.6975 148.162 14.8485C148.657 13.9911 148.983 13.3501 149.14 12.9256H150.044L149.709 18.5543H133.229V17.561C133.46 17.544 133.774 17.5101 134.17 17.4591C134.566 17.4082 134.847 17.3487 135.012 17.2808C135.326 17.145 135.536 16.9752 135.644 16.7714C135.751 16.5592 135.805 16.2918 135.805 15.9692V3.22185C135.805 2.91622 135.759 2.66577 135.668 2.47051C135.577 2.26676 135.359 2.08423 135.012 1.92292C134.797 1.82105 134.496 1.72766 134.108 1.64276C133.72 1.55786 133.427 1.50268 133.229 1.47721V0.483914H148.805V5.09383Z" fill="white"/>
<path d="M167.106 5.09383H166.165C165.925 4.40617 165.513 3.71001 164.927 3.00536C164.341 2.30071 163.759 1.88472 163.181 1.75737C162.933 1.69794 162.587 1.66399 162.141 1.6555C161.703 1.63852 161.34 1.63003 161.051 1.63003H158.501V8.60858H160.308C160.762 8.60858 161.175 8.5534 161.546 8.44303C161.918 8.33266 162.256 8.12042 162.562 7.8063C162.752 7.61104 162.941 7.2672 163.131 6.7748C163.329 6.28239 163.457 5.85366 163.515 5.48861H164.456V13.0275H163.515C163.466 12.6709 163.338 12.2252 163.131 11.6903C162.933 11.147 162.743 10.7735 162.562 10.5697C162.289 10.2641 161.967 10.0561 161.596 9.94571C161.225 9.82685 160.795 9.76743 160.308 9.76743H158.501V14.9759C158.501 15.5192 158.538 15.9522 158.612 16.2748C158.694 16.5889 158.843 16.8309 159.058 17.0007C159.264 17.162 159.545 17.2681 159.9 17.319C160.263 17.37 160.754 17.3954 161.373 17.3954C161.662 17.3954 162.009 17.3912 162.413 17.3827C162.818 17.3742 163.173 17.3487 163.478 17.3063C163.825 17.2638 164.147 17.2002 164.444 17.1153C164.749 17.0304 164.976 16.9073 165.125 16.746C165.521 16.33 165.967 15.6975 166.462 14.8485C166.957 13.9911 167.283 13.3501 167.44 12.9256H168.344L168.01 18.5543H151.529V17.561C151.761 17.544 152.074 17.5101 152.471 17.4591C152.867 17.4082 153.147 17.3487 153.312 17.2808C153.626 17.145 153.837 16.9752 153.944 16.7714C154.051 16.5592 154.105 16.2918 154.105 15.9692V3.22185C154.105 2.91622 154.06 2.66577 153.969 2.47051C153.878 2.26676 153.659 2.08423 153.312 1.92292C153.098 1.82105 152.797 1.72766 152.409 1.64276C152.021 1.55786 151.728 1.50268 151.529 1.47721V0.483914H167.106V5.09383Z" fill="white"/>
<path d="M190 18.5543H183.264C182.1 16.7205 181.13 15.2603 180.355 14.1736C179.587 13.0869 178.629 11.8304 177.482 10.4042H176.801V15.8928C176.801 16.1984 176.855 16.4573 176.962 16.6696C177.077 16.8818 177.292 17.0601 177.606 17.2044C177.763 17.2723 178.006 17.3445 178.336 17.4209C178.675 17.4888 178.964 17.5355 179.203 17.561V18.5543H169.83V17.561C170.069 17.5355 170.383 17.5016 170.771 17.4591C171.167 17.4082 171.448 17.3487 171.613 17.2808C171.927 17.145 172.137 16.9752 172.244 16.7714C172.352 16.5592 172.405 16.2918 172.405 15.9692V3.22185C172.405 2.91622 172.36 2.66153 172.269 2.45777C172.178 2.25402 171.96 2.07574 171.613 1.92292C171.349 1.81256 171.035 1.71917 170.672 1.64276C170.317 1.56635 170.036 1.51117 169.83 1.47721V0.483914H179.686C181.89 0.483914 183.561 0.840483 184.701 1.55362C185.848 2.25827 186.422 3.32797 186.422 4.76273C186.422 6.0277 186.067 7.04647 185.357 7.81903C184.655 8.58311 183.582 9.18164 182.138 9.61461C182.699 10.3617 183.351 11.2277 184.094 12.2125C184.845 13.1973 185.625 14.2033 186.434 15.2306C186.69 15.5617 187.037 15.9692 187.474 16.4531C187.92 16.9285 188.312 17.2214 188.65 17.3318C188.84 17.3912 189.08 17.4421 189.369 17.4846C189.666 17.527 189.876 17.5525 190 17.561V18.5543ZM181.568 5.1193C181.568 3.91376 181.238 3.03508 180.577 2.48324C179.925 1.92292 178.993 1.64276 177.779 1.64276H176.801V9.2071H177.742C178.955 9.2071 179.896 8.88025 180.565 8.22654C181.234 7.57283 181.568 6.53709 181.568 5.1193Z" fill="white"/>
</svg>
