<svg width="20" height="19" viewBox="0 0 20 19" fill="none" xmlns="http://www.w3.org/2000/svg">
<path d="M16.3153 18.48H4.33757C2.46395 18.48 0.958374 16.995 0.958374 15.147V3.333C0.958374 1.485 2.46395 0 4.33757 0H16.3153C18.1889 0 19.6945 1.485 19.6945 3.333V15.147C19.6945 16.995 18.1889 18.48 16.3153 18.48ZM10.3264 6.303C8.68702 6.303 7.31527 7.623 7.31527 9.273C7.31527 10.923 8.65356 12.243 10.3264 12.243C11.9993 12.243 13.3376 10.923 13.3376 9.273C13.3376 7.623 11.9658 6.303 10.3264 6.303ZM17.4528 2.211H14.4417V5.181H17.4528V2.211ZM17.8209 7.392H15.2447C15.4789 7.986 15.5792 8.58 15.5792 9.24C15.5792 12.078 13.2038 14.421 10.3264 14.421C7.4491 14.421 5.07363 12.078 5.07363 9.24C5.07363 8.58 5.174 7.986 5.4082 7.392H2.83199V14.058C2.83199 15.51 4.00299 16.632 5.44166 16.632H15.1777C16.6499 16.632 17.7874 15.477 17.7874 14.058V7.392H17.8209Z" fill="#C4C4C4"/>
</svg>
