<svg width="9" height="16" viewBox="0 0 9 16" fill="none" xmlns="http://www.w3.org/2000/svg">
<path d="M4.5 0C2.01863 0 0 2.09643 0 4.73929C0 5.325 0.117362 5.96429 0.328614 6.53929H0.325261L0.34538 6.58214C0.362146 6.62143 0.378912 6.66071 0.395678 6.7L4.5 16L8.5842 6.74643L8.60432 6.70357C8.62109 6.66429 8.64121 6.625 8.65797 6.58214L8.67138 6.54286C8.88934 5.96786 9 5.36071 9 4.74643C9 2.09643 6.98137 0 4.5 0ZM8.15835 6.33571L8.15164 6.35357C8.14158 6.375 8.13152 6.4 8.12146 6.42143L8.08793 6.49643L4.5 14.6179L0.908718 6.49643L0.878539 6.425C0.86848 6.40357 0.85842 6.38214 0.851714 6.36071C0.653875 5.84286 0.546572 5.26786 0.546572 4.73929C0.546572 2.41786 2.32042 0.578571 4.50335 0.578571C6.68629 0.578571 8.46013 2.41429 8.46013 4.73929C8.45678 5.28214 8.35618 5.81786 8.15835 6.33571Z" fill="white"/>
<path d="M4.5 2C3.12109 2 2 3.12109 2 4.5C2 5.87891 3.12109 7 4.5 7C5.87891 7 7 5.87891 7 4.5C7 3.12109 5.87891 2 4.5 2ZM4.5 6.33203C3.48828 6.33203 2.66797 5.51172 2.66797 4.5C2.66797 3.48828 3.48828 2.66797 4.5 2.66797C5.51172 2.66797 6.33203 3.48828 6.33203 4.5C6.33203 5.51172 5.51172 6.33203 4.5 6.33203Z" fill="white"/>
</svg>
